<mxfile host="app.diagrams.net" modified="2023-08-11T03:48:23.740Z" agent="Mozilla/5.0 (Macintosh; Intel Mac OS X 10_15_7) AppleWebKit/537.36 (KHTML, like Gecko) Chrome/115.0.0.0 Safari/537.36" etag="uYDptyqYi7DAG2sqxrrX" version="21.1.1" type="github">
  <diagram name="第 1 页" id="ZCpddvhj56-wZwmZkks3">
    <mxGraphModel dx="666" dy="479" grid="1" gridSize="10" guides="1" tooltips="1" connect="1" arrows="1" fold="1" page="1" pageScale="1" pageWidth="827" pageHeight="1169" math="0" shadow="0">
      <root>
        <mxCell id="0" />
        <mxCell id="1" parent="0" />
        <mxCell id="jqJVilemwkz2YwdiC7iF-14" value="" style="rounded=0;whiteSpace=wrap;html=1;gradientColor=default;fillColor=none;" parent="1" vertex="1">
          <mxGeometry x="607.5" y="65" width="145" height="250" as="geometry" />
        </mxCell>
        <mxCell id="jqJVilemwkz2YwdiC7iF-1" value="Nacos" style="rounded=0;whiteSpace=wrap;html=1;" parent="1" vertex="1">
          <mxGeometry x="400" y="160" width="120" height="60" as="geometry" />
        </mxCell>
        <mxCell id="jqJVilemwkz2YwdiC7iF-4" value="" style="edgeStyle=orthogonalEdgeStyle;rounded=0;orthogonalLoop=1;jettySize=auto;html=1;" parent="1" source="jqJVilemwkz2YwdiC7iF-2" target="jqJVilemwkz2YwdiC7iF-3" edge="1">
          <mxGeometry relative="1" as="geometry" />
        </mxCell>
        <mxCell id="jqJVilemwkz2YwdiC7iF-2" value="Actor" style="shape=umlActor;verticalLabelPosition=bottom;verticalAlign=top;html=1;outlineConnect=0;" parent="1" vertex="1">
          <mxGeometry x="90" y="160" width="30" height="60" as="geometry" />
        </mxCell>
        <mxCell id="jqJVilemwkz2YwdiC7iF-9" value="" style="edgeStyle=orthogonalEdgeStyle;rounded=0;orthogonalLoop=1;jettySize=auto;html=1;" parent="1" source="jqJVilemwkz2YwdiC7iF-3" target="jqJVilemwkz2YwdiC7iF-8" edge="1">
          <mxGeometry relative="1" as="geometry" />
        </mxCell>
        <mxCell id="jqJVilemwkz2YwdiC7iF-10" value="持久化" style="edgeLabel;html=1;align=center;verticalAlign=middle;resizable=0;points=[];" parent="jqJVilemwkz2YwdiC7iF-9" vertex="1" connectable="0">
          <mxGeometry x="-0.105" y="2" relative="1" as="geometry">
            <mxPoint as="offset" />
          </mxGeometry>
        </mxCell>
        <mxCell id="jqJVilemwkz2YwdiC7iF-11" style="edgeStyle=orthogonalEdgeStyle;rounded=0;orthogonalLoop=1;jettySize=auto;html=1;entryX=0;entryY=0.5;entryDx=0;entryDy=0;" parent="1" source="jqJVilemwkz2YwdiC7iF-3" target="jqJVilemwkz2YwdiC7iF-1" edge="1">
          <mxGeometry relative="1" as="geometry" />
        </mxCell>
        <mxCell id="jqJVilemwkz2YwdiC7iF-12" value="Publish" style="edgeLabel;html=1;align=center;verticalAlign=middle;resizable=0;points=[];" parent="jqJVilemwkz2YwdiC7iF-11" vertex="1" connectable="0">
          <mxGeometry x="-0.202" y="-1" relative="1" as="geometry">
            <mxPoint as="offset" />
          </mxGeometry>
        </mxCell>
        <mxCell id="jqJVilemwkz2YwdiC7iF-3" value="&lt;br&gt;天宫" style="whiteSpace=wrap;html=1;verticalAlign=top;" parent="1" vertex="1">
          <mxGeometry x="200" y="160" width="120" height="60" as="geometry" />
        </mxCell>
        <mxCell id="jqJVilemwkz2YwdiC7iF-5" value="Application 0" style="rounded=1;whiteSpace=wrap;html=1;" parent="1" vertex="1">
          <mxGeometry x="620" y="80" width="120" height="60" as="geometry" />
        </mxCell>
        <mxCell id="jqJVilemwkz2YwdiC7iF-8" value="&lt;br&gt;Elastic Search" style="whiteSpace=wrap;html=1;verticalAlign=top;" parent="1" vertex="1">
          <mxGeometry x="200" y="300" width="120" height="60" as="geometry" />
        </mxCell>
        <mxCell id="jqJVilemwkz2YwdiC7iF-13" value="Application 1" style="rounded=1;whiteSpace=wrap;html=1;" parent="1" vertex="1">
          <mxGeometry x="620" y="160" width="120" height="60" as="geometry" />
        </mxCell>
        <mxCell id="jqJVilemwkz2YwdiC7iF-15" value="" style="edgeStyle=orthogonalEdgeStyle;rounded=0;orthogonalLoop=1;jettySize=auto;html=1;" parent="1" source="jqJVilemwkz2YwdiC7iF-14" target="jqJVilemwkz2YwdiC7iF-1" edge="1">
          <mxGeometry relative="1" as="geometry" />
        </mxCell>
        <mxCell id="jqJVilemwkz2YwdiC7iF-16" value="Application 2" style="rounded=1;whiteSpace=wrap;html=1;" parent="1" vertex="1">
          <mxGeometry x="620" y="240" width="120" height="60" as="geometry" />
        </mxCell>
      </root>
    </mxGraphModel>
  </diagram>
</mxfile>
